<?xml version="1.0" encoding="UTF-8"?>
<svg viewBox="0 0 282.18863 282.70361" xmlns="http://www.w3.org/2000/svg">
 <g transform="translate(-85.401 -352.86)">
  <g transform="matrix(.79761 0 0 .79917 19.429 125.46)">
   <path d="m420.22 461.42c0 88.705-71.909 160.61-160.61 160.61s-160.61-71.909-160.61-160.61 71.909-160.61 160.61-160.61 160.61 71.909 160.61 160.61z" fill="#d40000" stroke="#2b0000" stroke-width="4"/>
  </g>
  <path d="m206.99 367.33c-61.492 9.4143-108.6 62.649-108.6 126.89 0 65.066 48.321 118.8 110.97 127.19-81.974-35.751-132.89-158.65-2.3679-254.09z" fill="#af0000"/>
  <path d="m326.4 539.02c2.2943 74.31-45.812 11.706-102.32 11.706s-96.473 56.858-102.32-11.706c-4.5087-52.829 44.201-25.43 100.71-25.43s102.33-26.645 103.94 25.43z" fill="#2b0000" stroke="#2b0000" stroke-width="3.1936"/>
  <path d="m147.49 506.49c-13.831 0.13654-23.156 4.3426-25.474 18.506 0.53341 2.3276 1.0844 4.6468 1.5454 6.9178 4.8149 11.093 20.545 13.541 29.711 6.4683 7.4843-1.2567 17.615 0.36587 22.283-4.2956 6.994 4.6995 15.368 3.5693 22.532 0.17481 8.2113-2.5406 16.581 8.0784 23.43-0.49948 7.1698-10.43 15.672 3.381 24.502-0.79917 5.4202-0.43102 4.9921-11.231 6.1565-2.4724 5.1165 6.9716 16.884 5.8902 22.856 0.54943 6.4482-7.5876 5.8109 8.0737 14.108 5.0448 6.5506 0.10926 13.778-5.2679 12.886-12.362 3.7482-5.3599-0.76625 9.5429 5.1346 9.9148 7.7021 4.9853 14.346-1.8514 17.074-9.2904-9.8481-31.757-51.587-10.764-101.77-10.764-18.326 0-35.811-2.8775-50.947-4.9699 0.87051 2.7525-0.99758 2.4828-0.84746-0.12487-8.5961-1.1777-16.439-2.0645-23.18-1.9979zm-4.0379 3.0219c0.7786 3.9208 6.7526 14.432 2.7168 14.585-1.76-4.6697-1.5438-9.7813-2.7168-14.585zm108 4.0708c0.98583 0.71448-0.98582 0.71449 0 0zm-50.823 12.812c1.0745 0.83518-1.2857 0.99227 0 0zm-50.698 4.9449c1.6936 0.41473-0.96478 1.1922 0 0z" fill="#fff"/>
  <path d="m235.11 530.47c-0.79961 0.0364-1.6095 0.26891-2.3928 0.7742-6.8148 6.9983-16.615 0.57459-24.776 2.2227-7.4593-1.0156-5.7543 12.109-7.9013 11.563-1.3419-9.475-13.557-18.584-21.934-11.213-6.844 7.2031-2.1197 17.865 3.6889 23.925-1.5614 5.6276-4.7537-6.1907-5.8076-8.3913-2.4449-10.402-14.582-19.953-23.205-9.4402-6.9026 8.2838-16.608-3.4666-23.405 5.1447-7.3335 6.4098-3.5163 16.52 1.2463 23.126 0.0607 0.0898 0.11264 0.18583 0.17447 0.27471 15.793 16.25 49.609-17.732 93.295-17.732 42.297 0 79.868 35.065 95.14 21.553 2.6348-9.8004 0.0167-20.121-2.2931-29.694-4.337-10.296-21.096-11.665-26.022-1.2237-4.269 7.9666-4.6152-6.8346-11.291-4.895-4.8429-2.2007-10.146 3.9542-11.64 4.7201-5.6447-10.195-19.028-1.6874-26.346-7.5922-1.7645-1.5625-4.1316-3.2312-6.5304-3.1218zm-79.91 28.645c0.76797-2e-3 -1.3769 1.6194-0.52343 0.12487 0.2459-0.0798 0.41371-0.12456 0.52343-0.12487zm129.44 1.7981c0.078-0.023 0.25583 0.0262 0.5982 0.1998 0.70304 1.3618-0.93609-0.10011-0.5982-0.1998z" fill="#fff"/>
  <path d="m326.4 539.02c2.2943 74.31-45.812 11.706-102.32 11.706s-96.473 56.858-102.32-11.706c-4.5087-52.829 44.201-25.43 100.71-25.43s102.33-26.645 103.94 25.43z" fill="none" stroke="#2b0000" stroke-width="4"/>
  <path d="m219.05 425.03c0.37295 7.4007-1.9148 16.476-9.4073 19.564-12.015 4.109-26.594 1.2009-35.388-8.1693-5.0734-6.1366-7.3693-14.413-6.4405-22.304-1.2504 6.2071 2.7773 11.756 5.7223 16.821 5.2384 6.265 13.022 9.4812 20.346 12.58 5.7473 1.7326 10.891-2.0878 15.023-5.606 3.3656-2.8678 7.0284-5.6849 9.3658-9.483 0.48561-1.0647 0.78801-2.2268 0.77895-3.4027z" fill="#800000"/>
  <path d="m230.13 425.83c3.8508 4.346 4.6988 10.728 9.2709 14.52 4.6313 6.4246 13.591 6.431 20.58 4.8576 10.61-1.7564 20.159-8.3462 26.108-17.249 2.181-1.7116 6.5962-8.251 2.5285-8.8788-6.4103 6.0953-13.53 11.739-21.799 15.042-4.8638 1.9462-10.154 2.065-15.105 3.684-4.594 1.2986-9.9036 0.49471-13.161-3.2638-2.8665-2.8417-4.8315-6.6534-8.423-8.7115z" fill="#800000"/>
  <path transform="matrix(.84774 0 0 .90834 9.1114 84.377)" d="m203.04 405.86c0 12.274-10.176 22.223-22.728 22.223s-22.728-9.9497-22.728-22.223 10.176-22.223 22.728-22.223 22.728 9.9497 22.728 22.223z" fill="#800000"/>
  <path transform="matrix(.79761 0 0 .79917 19.429 125.46)" d="m203.04 405.86c0 12.274-10.176 22.223-22.728 22.223s-22.728-9.9497-22.728-22.223 10.176-22.223 22.728-22.223 22.728 9.9497 22.728 22.223z"/>
  <path transform="matrix(.86027 0 0 .92118 131.59 78.651)" d="m203.04 405.86c0 12.274-10.176 22.223-22.728 22.223s-22.728-9.9497-22.728-22.223 10.176-22.223 22.728-22.223 22.728 9.9497 22.728 22.223z" fill="#800000"/>
  <path transform="matrix(.79761 0 0 .79917 144.31 125.46)" d="m203.04 405.86c0 12.274-10.176 22.223-22.728 22.223s-22.728-9.9497-22.728-22.223 10.176-22.223 22.728-22.223 22.728 9.9497 22.728 22.223z"/>
  <path transform="matrix(.79761 0 0 .79917 19.429 125.46)" d="m420.22 461.42c0 88.705-71.909 160.61-160.61 160.61s-160.61-71.909-160.61-160.61 71.909-160.61 160.61-160.61 160.61 71.909 160.61 160.61z" fill="none" stroke="#2b0000" stroke-width="7.5151"/>
 </g>
</svg>
